<svg height="14" viewBox="0 0 16 14" width="16" xmlns="http://www.w3.org/2000/svg"><path d="m1297.91592 304.221586c-.17365.012401-.34381.084985-.47658.217754l-5.82652 5.698787c-.29266.292663-.76708.292926-1.06007.000587l-3.02301-3.016311c-.29322-.292569-.76809-.292042-1.06066.001175-.29257.293218-.29204.768092.00118 1.06066l3.023 3.016311c.87897.877018 2.30223.876229 3.18022-.001762l5.82652-5.698787c.14428-.144285.21749-.332732.21962-.521831.17809.299053.28038.648496.28038 1.021831v10c0 1.104569-.89543 2-2 2h-12c-1.10457 0-2-.895431-2-2v-10c0-1.104569.89543-2 2-2h12c.33009 0 .6415.079967.91592.221586z" fill="#ff955b" fill-rule="evenodd" transform="translate(-1283 -304)"/></svg>